<?xml version="1.0" encoding="UTF-8" standalone="no"?>
<!-- Created with Inkscape (http://www.inkscape.org/) -->
<!--
   This is a modified version of the original work of:
   Original Author: Vlarg (https://www.deviantart.com/vlarg)
   Original Artwork URL: https://www.deviantart.com/vlarg/art/One-Piece-Flag-Vector-130545778

   Modified by: Sivothayan (https://sivothajan.dev)
   Modified Artwork URL: https://sivothajan.dev/favicon/logo-symbol-icon.svg
   Modification Date: 2025-09-05
-->

<svg
   version="1.1"
   id="svg1"
   width="2304"
   height="2304"
   viewBox="576 0 2304 2304"
   sodipodi:docname="one_piece_flag_vector.svg"
   xmlns:inkscape="http://www.inkscape.org/namespaces/inkscape"
   xmlns:sodipodi="http://sodipodi.sourceforge.net/DTD/sodipodi-0.dtd"
   xmlns="http://www.w3.org/2000/svg"
   xmlns:svg="http://www.w3.org/2000/svg">
  <defs
     id="defs1" />
  <sodipodi:namedview
     id="namedview1"
     pagecolor="#ffffff"
     bordercolor="#000000"
     borderopacity="0.25"
     inkscape:showpageshadow="2"
     inkscape:pageopacity="0.0"
     inkscape:pagecheckerboard="0"
     inkscape:deskcolor="#d1d1d1">
    <inkscape:page
       x="0"
       y="0"
       inkscape:label="1"
       id="page1"
       width="3456"
       height="2304"
       margin="0"
       bleed="0" />
  </sodipodi:namedview>
  <g
     id="g1"
     inkscape:groupmode="layer"
     inkscape:label="1">
    <g
       id="group-R5">
      <path
         id="path2"
         d="M 25920,0 H 0 V 17280 H 25920 V 0"
         style="fill:#000000;fill-opacity:1;fill-rule:nonzero;stroke:none"
         transform="matrix(0.13333333,0,0,-0.13333333,0,2304)" />
      <path
         id="path3"
         d="m 9190,11994 c -159.33,-439.6 -233.89,-828 -233.89,-1090 h 8189.59 c 0,265.5 -64.8,658.5 -224.6,1090"
         style="fill:#ee3320;fill-opacity:1;fill-rule:nonzero;stroke:none"
         transform="matrix(0.13333333,0,0,-0.13333333,0,2304)" />
      <path
         id="path4"
         d="m 16843.3,12177.9 c -463.3,1127.2 -1551.5,2400.9 -3823.3,2400.9 -2232.8,0 -3315.75,-1287.9 -3774.94,-2400.9"
         style="fill:#f8df0a;fill-opacity:1;fill-rule:nonzero;stroke:none"
         transform="matrix(0.13333333,0,0,-0.13333333,0,2304)" />
      <path
         id="path5"
         d="m 8956.11,10050 h 8189.59 c 0,0 -713.6,-3516.3 -4094.8,-3460 -3600.9,60 -4094.79,3460 -4094.79,3460"
         style="fill:#ffffff;fill-opacity:1;fill-rule:nonzero;stroke:none"
         transform="matrix(0.13333333,0,0,-0.13333333,0,2304)" />
      <path
         id="path6"
         d="m 13076.7,5569.3 c 332.9,-0.6 686.2,40.1 1050,142.2 l -75.3,785.6 c -335.2,-77.9 -655.8,-110.6 -954.8,-112.6 l -19.9,-815.2"
         style="fill:#ffffff;fill-opacity:1;fill-rule:nonzero;stroke:none"
         transform="matrix(0.13333333,0,0,-0.13333333,0,2304)" />
      <path
         id="path7"
         d="m 11824.1,6559.4 c -526.2,149.5 -844.1,340.6 -844.1,340.6 -79.4,-102.8 -192.3,-342.5 -302,-625 0,0 378.8,-259.4 983.6,-463.7 l 162.5,748.1"
         style="fill:#ffffff;fill-opacity:1;fill-rule:nonzero;stroke:none"
         transform="matrix(0.13333333,0,0,-0.13333333,0,2304)" />
      <path
         id="path8"
         d="m 12052.5,6500.8 c 248.9,-57.3 533.2,-101 844.4,-113.1 l -27.7,-812.7 c -351.6,18.5 -676.8,80.7 -963.2,160.8 l 146.5,765"
         style="fill:#ffffff;fill-opacity:1;fill-rule:nonzero;stroke:none"
         transform="matrix(0.13333333,0,0,-0.13333333,0,2304)" />
      <path
         id="path9"
         d="m 14346.7,5780.4 c 324.7,112.6 656.2,276.2 987.7,504.6 -70.2,274.9 -148.5,520.5 -204.4,615 -295.5,-154.4 -585.8,-267.7 -867.2,-348.1 l 83.9,-771.5"
         style="fill:#ffffff;fill-opacity:1;fill-rule:nonzero;stroke:none"
         transform="matrix(0.13333333,0,0,-0.13333333,0,2304)" />
      <path
         id="path10"
         d="M 15500.3,5096.8 C 15520.7,3810.6 15023.6,2330 12820,2330 c -2289.6,0 -2643.5,1579.8 -2454.1,2760.6 2897.4,-2280.6 5134.4,6.2 5134.4,6.2"
         style="fill:#ffffff;fill-opacity:1;fill-rule:nonzero;stroke:none"
         transform="matrix(0.13333333,0,0,-0.13333333,0,2304)" />
      <path
         id="path11"
         d="m 12843.3,4288.7 c -377.6,24.1 -789.9,118.4 -1233.1,313.5 l 229.6,939 c 362.2,-101.4 710,-148.3 1036.7,-157.2 l -33.2,-1095.3"
         style="fill:#ffffff;fill-opacity:1;fill-rule:nonzero;stroke:none"
         transform="matrix(0.13333333,0,0,-0.13333333,0,2304)" />
      <path
         id="path12"
         d="m 11634.7,5604.1 c -334.7,111.5 -680.3,270.9 -1031.7,490.4 -75.3,-229.1 -146.4,-519.8 -195.4,-750.7 348.3,-275.7 682.9,-487.8 1002.3,-647.4 l 224.8,907.7"
         style="fill:#ffffff;fill-opacity:1;fill-rule:nonzero;stroke:none"
         transform="matrix(0.13333333,0,0,-0.13333333,0,2304)" />
      <path
         id="path13"
         d="m 13070,4282.5 c 462.3,4.1 867.1,111.7 1206.4,259.3 l -124.7,995.2 c -316,-84.5 -681,-146.8 -1081.8,-153.9 l 0.1,-1100.6"
         style="fill:#ffffff;fill-opacity:1;fill-rule:nonzero;stroke:none"
         transform="matrix(0.13333333,0,0,-0.13333333,0,2304)" />
      <path
         id="path14"
         d="m 14489.7,4643.8 c 640,334.3 994.5,779.6 994.5,779.6 -18.9,233 -52.4,454.1 -92.8,652.2 0,0 -381.5,-267.7 -1008.7,-470.3 l 107,-961.5"
         style="fill:#ffffff;fill-opacity:1;fill-rule:nonzero;stroke:none"
         transform="matrix(0.13333333,0,0,-0.13333333,0,2304)" />
      <path
         id="path15"
         d="m 14720,9910 c 736.7,0 1150,-613.33 1150,-1080 0,-360 -200,-1070 -1150,-1070 -950,0 -1150,790 -1150,1020 0,230 130,1130 1150,1130"
         style="fill:#000000;fill-opacity:1;fill-rule:nonzero;stroke:none"
         transform="matrix(0.13333333,0,0,-0.13333333,0,2304)" />
      <path
         id="path16"
         d="m 11430,9840 c 833.3,0 1200,-623.33 1200,-1005 0,-478.33 -373.3,-1135 -1200,-1135 -920,0 -1160,776.67 -1160,1070 0,280 220,1070 1160,1070"
         style="fill:#000000;fill-opacity:1;fill-rule:nonzero;stroke:none"
         transform="matrix(0.13333333,0,0,-0.13333333,0,2304)" />
      <path
         id="path17"
         d="m 13090,7863.33 c 280,0 393.3,-213.33 393.3,-340 0,-126.67 -106.6,-353.33 -353.3,-353.33 -246.7,0 -446.7,140 -446.7,313.33 0,173.33 153.4,380 406.7,380"
         style="fill:#000000;fill-opacity:1;fill-rule:nonzero;stroke:none"
         transform="matrix(0.13333333,0,0,-0.13333333,0,2304)" />
      <path
         id="path18"
         d="m 15344.4,13193 403.8,-612.2 c 0,0 42.2,-64 -30.2,-111.7 -72.3,-47.7 -110.9,10.7 -110.9,10.7 l -407.4,617.7 c 0,0 -31.2,59.4 35.6,103.4 66.8,44 109.1,-7.9 109.1,-7.9"
         style="fill:#000000;fill-opacity:1;fill-rule:nonzero;stroke:none"
         transform="matrix(0.13333333,0,0,-0.13333333,0,2304)" />
      <path
         id="path19"
         d="m 10846.8,13160.4 -534.5,-639.7 c 0,0 -55.9,-66.9 -107.6,-23.7 -51.7,43.2 -0.7,104.2 -0.7,104.2 l 539.4,645.6 c 0,0 52.5,54.8 100.3,15 47.7,-39.9 3.1,-101.4 3.1,-101.4"
         style="fill:#000000;fill-opacity:1;fill-rule:nonzero;stroke:none"
         transform="matrix(0.13333333,0,0,-0.13333333,0,2304)" />
      <path
         id="path20"
         d="m 11410.4,12951 -337.4,-521 c 0,0 -43.1,-69.1 -104.7,-29.2 -61.5,39.8 -21.5,104.2 -21.5,104.2 l 340.4,525.8 c 0,0 46,51 102.8,14.2 56.9,-36.8 20.4,-94 20.4,-94"
         style="fill:#000000;fill-opacity:1;fill-rule:nonzero;stroke:none"
         transform="matrix(0.13333333,0,0,-0.13333333,0,2304)" />
      <path
         id="path21"
         d="m 11980.7,12831.2 -161.8,-380.6 c 0,0 -22.1,-50.4 -90.6,-21.3 -68.4,29.1 -47.8,76.1 -47.8,76.1 l 163.2,384 c 0,0 29.8,43 93,16.1 63.2,-26.8 44,-74.3 44,-74.3"
         style="fill:#000000;fill-opacity:1;fill-rule:nonzero;stroke:none"
         transform="matrix(0.13333333,0,0,-0.13333333,0,2304)" />
      <path
         id="path22"
         d="m 14713,12879.4 162.5,-352.3 c 0,0 29.5,-48.3 -32.2,-76.7 -61.6,-28.5 -89.7,16.6 -89.7,16.6 l -164,355.4 c 0,0 -21.5,53 35.4,79.3 56.9,26.2 88,-22.3 88,-22.3"
         style="fill:#000000;fill-opacity:1;fill-rule:nonzero;stroke:none"
         transform="matrix(0.13333333,0,0,-0.13333333,0,2304)" />
      <path
         id="path23"
         d="M 6900.01,10707.3 H 19081.8 c 0,0 191.5,7.9 191.5,-236.4 0,-244.2 -191.5,-236.3 -191.5,-236.3 H 6900.01 c 0,0 -133.34,37.3 -133.34,236.3 0,199.1 133.34,236.4 133.34,236.4"
         style="fill:#f8df0a;fill-opacity:1;fill-rule:nonzero;stroke:none"
         transform="matrix(0.13333333,0,0,-0.13333333,0,2304)" />
      <path
         id="path24"
         d="m 19176.7,13883.3 c 786.6,120 1073.3,-373.3 1073.3,-753.3 0,-380 -240,-826.7 -826.7,-840 -586.6,-13.3 -866.6,346.7 -866.6,346.7 L 17243.3,11430 c -40,580 -400,1093.3 -400,1093.3 l 960,853.4 c 0,0 -313.3,306.6 -293.3,806.6 20,500 440,880 826.7,880 386.6,0 913.3,-206.6 840,-1180"
         style="fill:#ffffff;fill-opacity:1;fill-rule:nonzero;stroke:none"
         transform="matrix(0.13333333,0,0,-0.13333333,0,2304)" />
      <path
         id="path25"
         d="m 6556.67,14043.3 c -493.34,-60 -886.67,-333.3 -886.67,-786.6 0,-453.4 173.33,-840 766.67,-853.4 C 7030,12390 7490,12796.7 7490,12796.7 l 1333.33,-1293.4 c 60,486.7 366.67,986.7 366.67,986.7 l -1053.33,1013.3 c 0,0 313.33,353.4 306.66,726.7 -6.66,373.3 -313.33,820 -906.66,826.7 -593.34,6.6 -973.34,-386.7 -980,-1013.4"
         style="fill:#ffffff;fill-opacity:1;fill-rule:nonzero;stroke:none"
         transform="matrix(0.13333333,0,0,-0.13333333,0,2304)" />
      <path
         id="path26"
         d="m 18036.7,3383.3 c 870.8,-55.8 1006.6,346.7 1026.6,860 20,513.4 -340,873.4 -853.3,906.7 -513.3,33.3 -853.3,-320 -853.3,-320 l -1900,1913.3 c 0,0 260,-533.3 280,-1880 l 846.6,-860 c 0,0 -293.3,-346.6 -273.3,-760 20,-413.3 293.3,-953.3 880,-913.3 586.7,40 886.7,373.3 846.7,1053.3"
         style="fill:#ffffff;fill-opacity:1;fill-rule:nonzero;stroke:none"
         transform="matrix(0.13333333,0,0,-0.13333333,0,2304)" />
      <path
         id="path27"
         d="m 7650,3260 c -110,-760 230,-1110 850,-1110 620,0 920,600 950,1070 30,470 -310,790 -310,790 l 990,910 c 150,1080 480,1780 480,1780 L 8490,4760 c 0,0 -305.33,400 -857.67,400 C 7080,5160 6590,4830 6570,4150 c -20,-680 500,-950 1080,-890"
         style="fill:#ffffff;fill-opacity:1;fill-rule:nonzero;stroke:none"
         transform="matrix(0.13333333,0,0,-0.13333333,0,2304)" />
    </g>
  </g>
</svg>
